<svg width="21" height="20" viewBox="0 0 21 20" fill="none" xmlns="http://www.w3.org/2000/svg">
<rect width="21" height="20" fill="#F5F5F5"/>
<g id="&#208;&#159;&#208;&#190;&#208;&#191;&#209;&#131;&#208;&#187;&#209;&#143;&#209;&#128;&#208;&#189;&#209;&#139;&#208;&#181; &#209;&#130;&#208;&#190;&#208;&#178;&#208;&#176;&#209;&#128;&#209;&#139;">
<rect width="1920" height="736" transform="translate(-432 -596)" fill="white"/>
<g id="Frame 23">
<g id="Frame 22">
<g id="&#208;&#162;&#208;&#190;&#208;&#178;&#208;&#176;&#209;&#128; &#208;&#178; &#208;&#189;&#208;&#176;&#208;&#187;&#208;&#184;&#209;&#135;&#208;&#184;&#208;&#184;: &#208;&#177;&#208;&#190;&#208;&#187;&#209;&#140;&#209;&#136;&#208;&#176;&#209;&#143; &#208;&#191;&#208;&#187;&#208;&#184;&#209;&#130;&#208;&#186;&#208;&#176;">
<g clip-path="url(#clip0_0_1)">
<rect x="-170" y="-436" width="334" height="496" rx="5" fill="white"/>
<g id="&#208;&#154;&#208;&#189;&#208;&#190;&#208;&#191;&#208;&#186;&#208;&#176; &#209;&#130;&#208;&#190;&#208;&#178;&#208;&#176;&#209;&#128;&#208;&#189;&#208;&#176;&#209;&#143;">
<rect x="-35" y="-15" width="174" height="50" rx="5" fill="#F1D264"/>
<g id="&#208;&#154;&#208;&#190;&#208;&#189;&#209;&#130;&#208;&#181;&#208;&#185;&#208;&#189;&#208;&#181;&#209;&#128; &#208;&#184;&#208;&#186;&#208;&#190;&#208;&#189;&#208;&#186;&#208;&#184;">
<path id="Union" fill-rule="evenodd" clip-rule="evenodd" d="M0.5 2C0.5 1.44772 0.947715 1 1.5 1H3.88919C4.30755 1 4.6817 1.26043 4.82697 1.65277L5.69608 4H19.5C19.8095 4 20.1016 4.14331 20.2909 4.38811C20.4803 4.6329 20.5457 4.95159 20.4679 5.25117L19.3931 9.39351C19.0498 10.7163 17.8559 11.64 16.4892 11.64H7.73613L7.97647 12.3293C8.11652 12.7309 8.49534 13 8.92071 13H16C16.5523 13 17 13.4477 17 14C17 14.5523 16.5523 15 16 15H8.92071C7.6446 15 6.50815 14.1927 6.08798 12.9878L5.38414 10.9693C5.3727 10.9364 5.36298 10.9031 5.35501 10.8693L4.04079 5.28934L3.19311 3H1.5C0.947715 3 0.5 2.55228 0.5 2ZM6.26289 6L7.12021 9.64H16.4892C16.9448 9.64 17.3427 9.33211 17.4572 8.89117L18.2074 6H6.26289ZM9.5 17.5C9.5 18.3284 8.82843 19 8 19C7.17157 19 6.5 18.3284 6.5 17.5C6.5 16.6716 7.17157 16 8 16C8.82843 16 9.5 16.6716 9.5 17.5ZM16 19C16.8284 19 17.5 18.3284 17.5 17.5C17.5 16.6716 16.8284 16 16 16C15.1716 16 14.5 16.6716 14.5 17.5C14.5 18.3284 15.1716 19 16 19Z" fill="black"/>
</g>
</g>
</g>
<rect x="-169.5" y="-435.5" width="333" height="495" rx="4.5" stroke="#ECF0F4"/>
</g>
</g>
</g>
</g>
<defs>
<clipPath id="clip0_0_1">
<rect x="-170" y="-436" width="334" height="496" rx="5" fill="white"/>
</clipPath>
</defs>
</svg>
