<svg width="30" height="30" viewBox="0 0 30 30" fill="none" xmlns="http://www.w3.org/2000/svg">
<rect width="30" height="30" fill="#F5F5F5"/>
<g id="&#208;&#159;&#208;&#190;&#208;&#191;&#209;&#131;&#208;&#187;&#209;&#143;&#209;&#128;&#208;&#189;&#209;&#139;&#208;&#181; &#209;&#130;&#208;&#190;&#208;&#178;&#208;&#176;&#209;&#128;&#209;&#139;">
<rect width="1920" height="736" transform="translate(-292 -591)" fill="white"/>
<g id="Frame 23">
<g id="Frame 22">
<g id="&#208;&#162;&#208;&#190;&#208;&#178;&#208;&#176;&#209;&#128; &#208;&#178; &#208;&#189;&#208;&#176;&#208;&#187;&#208;&#184;&#209;&#135;&#208;&#184;&#208;&#184;: &#208;&#177;&#208;&#190;&#208;&#187;&#209;&#140;&#209;&#136;&#208;&#176;&#209;&#143; &#208;&#191;&#208;&#187;&#208;&#184;&#209;&#130;&#208;&#186;&#208;&#176;">
<g clip-path="url(#clip0_0_1)">
<rect x="-30" y="-431" width="334" height="496" rx="5" fill="white"/>
<g id="&#208;&#154;&#208;&#190;&#208;&#187;&#208;&#184;&#209;&#135;&#208;&#181;&#209;&#129;&#209;&#130;&#208;&#178;&#208;&#190;">
<rect x="-4.5" y="-9.5" width="99" height="49" rx="4.5" fill="white"/>
<g id="&#208;&#156;&#208;&#184;&#208;&#189;&#209;&#131;&#209;&#129;">
<path id="Line 16 (Stroke)" fill-rule="evenodd" clip-rule="evenodd" d="M9 15C9 14.4477 9.33579 14 9.75 14H20.25C20.6642 14 21 14.4477 21 15C21 15.5523 20.6642 16 20.25 16H9.75C9.33579 16 9 15.5523 9 15Z" fill="#8D9295"/>
</g>
<rect x="-4.5" y="-9.5" width="99" height="49" rx="4.5" stroke="#ECF0F4"/>
</g>
</g>
<rect x="-29.5" y="-430.5" width="333" height="495" rx="4.5" stroke="#ECF0F4"/>
</g>
</g>
</g>
</g>
<defs>
<clipPath id="clip0_0_1">
<rect x="-30" y="-431" width="334" height="496" rx="5" fill="white"/>
</clipPath>
</defs>
</svg>
