<svg width="116" height="2" viewBox="0 0 116 2" fill="none" xmlns="http://www.w3.org/2000/svg">
<path fill-rule="evenodd" clip-rule="evenodd" d="M0 1C0 0.447715 0.447715 0 1 0H19C19.5523 0 20 0.447715 20 1C20 1.55228 19.5523 2 19 2H1C0.447715 2 0 1.55228 0 1Z" fill="#F1D264"/>
<path fill-rule="evenodd" clip-rule="evenodd" d="M24 1C24 0.447715 24.4477 0 25 0H43C43.5523 0 44 0.447715 44 1C44 1.55228 43.5523 2 43 2H25C24.4477 2 24 1.55228 24 1Z" fill="black" fill-opacity="0.2"/>
<path fill-rule="evenodd" clip-rule="evenodd" d="M48 1C48 0.447715 48.4477 0 49 0H67C67.5523 0 68 0.447715 68 1C68 1.55228 67.5523 2 67 2H49C48.4477 2 48 1.55228 48 1Z" fill="black" fill-opacity="0.2"/>
<path fill-rule="evenodd" clip-rule="evenodd" d="M72 1C72 0.447715 72.4477 0 73 0H91C91.5523 0 92 0.447715 92 1C92 1.55228 91.5523 2 91 2H73C72.4477 2 72 1.55228 72 1Z" fill="black" fill-opacity="0.2"/>
<path fill-rule="evenodd" clip-rule="evenodd" d="M96 1C96 0.447715 96.4477 0 97 0H115C115.552 0 116 0.447715 116 1C116 1.55228 115.552 2 115 2H97C96.4477 2 96 1.55228 96 1Z" fill="black" fill-opacity="0.2"/>
</svg>
